<?xml version="1.0" encoding="UTF-8" standalone="no"?>
<svg
   xmlns:dc="http://purl.org/dc/elements/1.1/"
   xmlns:cc="http://creativecommons.org/ns#"
   xmlns:rdf="http://www.w3.org/1999/02/22-rdf-syntax-ns#"
   xmlns:svg="http://www.w3.org/2000/svg"
   xmlns="http://www.w3.org/2000/svg"
   viewBox="0 0 1080 822"
   height="822"
   width="1080"
   id="svg10"
   version="1.1">
  <metadata
     id="metadata16">
    <rdf:RDF>
      <cc:Work
         rdf:about="">
        <dc:format>image/svg+xml</dc:format>
        <dc:type
           rdf:resource="http://purl.org/dc/dcmitype/StillImage" />
        <dc:title></dc:title>
      </cc:Work>
    </rdf:RDF>
  </metadata>
  <defs
     id="defs14" />
  <g
     id="g18">
    <path
       id="path22"
       d="m 65.444072,35.12597 c -6.765317,0.02588 -14.39274,-0.0404 -20.694702,-0.04601 -1.553617,0.0066 -1.7614,-0.03048 -2.207701,-0.39374 -0.437068,-0.355747 -0.597486,-0.781502 -0.656963,-1.743605 -0.0603,-0.975494 -0.28448,-1.850842 -0.661733,-2.583898 -1.430308,-2.779291 -4.236562,-4.218158 -7.327796,-3.757226 -0.560114,0.08352 -0.757688,0.145139 -1.536553,0.479236 -0.67485,0.289477 -0.986249,0.453552 -1.271233,0.6698 -1.8155,1.377617 -2.78333,3.159943 -2.909229,5.357551 -0.05677,0.990948 -0.08479,1.53639 -0.816004,1.855513 -0.383168,0.167225 -0.828778,0.160351 -4.798425,0.14493 -6.001123,-0.04942 -11.82366,0.0059 -17.3807862,-0.09278 C 4.5370812,35.010272 3.7278792,34.625652 3.4132402,34.108959 3.1829037,33.730705 3.1588916,32.805772 3.3258233,30.741697 3.6919911,26.214106 5.0556201,21.781953 7.3150144,17.775775 9.8533376,13.275023 13.642575,9.2738574 17.929467,6.5676667 c 1.786195,-1.1275733 2.09387,-1.2873643 4.492654,-2.3332593 2.515457,-1.0967652 3.071618,-1.2865127 5.3926,-1.8398093 5.546269,-1.3221702 11.481027,-1.08183 16.970899,0.687271 5.405769,1.7419992 10.172001,4.8466241 14.006086,9.1232749 1.567723,1.748687 3.098378,3.90541 4.095491,5.770635 0.208443,0.38991 0.549041,1.027495 0.756893,1.416852 0.207851,0.389357 0.473634,0.928002 0.590635,1.196985 0.247829,0.569742 1.068995,2.84855 1.310994,3.638078 0.575759,1.878429 1.051994,4.40663 1.22138,6.484006 0.07434,0.911644 0.129259,2.388451 0.105221,2.829358 -0.0426,0.781451 -0.694718,1.505097 -1.428248,1.584912 z M 65.190894,32.695189 C 65.121452,29.273921 64.485233,26.028059 63.21617,22.62053 61.869179,19.003781 59.506506,15.31108 56.636074,12.336294 56.298439,11.986383 55.510563,11.222856 55.374484,11.113692 55.325894,11.074711 54.963572,10.763847 54.569325,10.422881 52.500829,8.6339352 49.853609,6.9604524 47.33895,5.852082 45.65525,5.1099679 44.577153,4.7258812 42.921207,4.2782006 35.685648,2.3220852 27.92674,3.1296532 21.333828,6.5250721 c -2.200565,1.1333141 -4.580099,2.7779717 -6.416501,4.4348799 -4.382183,3.953858 -7.4249664,8.89335 -9.0013013,14.612231 -0.5406543,1.961474 -0.980252,4.95276 -1.014456,6.902975 -0.011122,0.634122 0.00333,0.744035 0.1023726,0.778407 0.063428,0.02201 0.6850864,0.03966 1.3814634,0.03922 0.696377,-4.43e-4 2.0432584,0.0015 2.9930691,0.0044 0.9498112,0.0029 1.7478222,-0.0039 1.7733572,-0.01507 0.02554,-0.01116 0.05413,-0.343925 0.06355,-0.739479 0.03863,-1.622081 0.338878,-3.613119 0.813389,-5.393772 0.325224,-1.220439 1.186129,-3.458544 1.744628,-4.535533 2.152971,-4.151704 5.165986,-7.361107 9.206553,-9.806632 0.57459,-0.347766 1.124967,-0.614464 2.571139,-1.245906 1.923727,-0.839976 2.580104,-1.065223 4.138099,-1.420177 8.841053,-2.014235 17.927771,1.073578 23.75554,8.072515 0.724615,0.870236 1.5892,2.120557 2.345509,3.391964 0.534557,0.898628 1.811044,3.870902 2.104598,4.900515 0.630936,2.212955 0.943255,4.25149 1.010484,6.595537 0.005,0.175116 0.03816,0.301324 0.0838,0.319089 0.04152,0.01617 0.784623,0.03073 1.651343,0.03236 0.86672,0.0016 1.776668,0.0043 2.022106,0.0059 0.245439,0.0016 0.553906,0.0025 0.685483,0.002 0.131577,-4.73e-4 0.579975,0.0034 0.99644,0.0087 0.416465,0.0052 0.780506,-0.0077 0.808981,-0.0287 0.02848,-0.02103 0.04531,-0.356421 0.03742,-0.745315 z m -7.976512,0.148912 c -0.10051,-5.181125 -2.059506,-10.17114 -5.542126,-14.117066 -3.674831,-4.163709 -8.704955,-6.778381 -14.205982,-7.384308 -5.382417,-0.592861 -10.712631,0.790507 -15.210233,3.947563 -2.801191,1.966273 -5.258187,4.780651 -6.896203,7.899289 -0.496235,0.944789 -1.2979,2.910312 -1.53194,3.756015 -0.08296,0.299773 -0.170815,0.599872 -0.195236,0.666888 -0.144723,0.397151 -0.487935,2.180151 -0.604271,3.139219 -0.07949,0.655332 -0.187426,2.430992 -0.152616,2.510753 0.02237,0.05125 6.050817,0.08567 6.066787,0.03464 0.0052,-0.01675 0.03186,-0.409883 0.05914,-0.873621 0.27853,-4.73369 2.713496,-9.209772 6.520832,-11.986931 1.10199,-0.803817 1.536551,-1.045325 3.140462,-1.745314 1.579033,-0.689131 2.120826,-0.868077 3.3208,-1.096806 5.462527,-1.041225 11.097294,0.803615 14.847339,4.861064 1.379327,1.492395 2.301669,2.958181 3.092291,4.914265 0.735587,1.819925 1.091618,3.38745 1.17297,5.164339 0.01822,0.397961 0.04491,0.761636 0.0593,0.808168 0.02261,0.07308 1.067558,0.104459 3.180049,0.0955 0.573732,-0.0024 1.532712,0.0032 2.162038,0.01278 0.360082,0.0055 0.671214,0.0049 0.691404,-0.0013 0.02019,-0.0062 0.03152,-0.278489 0.02519,-0.605182 z m -7.755657,0.230976 c -0.0146,-0.976838 -0.236383,-2.449482 -0.543515,-3.608933 -0.257529,-0.972197 -1.019009,-2.713805 -1.570991,-3.593067 -1.436344,-2.287985 -3.432603,-4.137162 -5.726909,-5.304954 -3.516756,-1.790016 -7.623234,-2.074167 -11.317822,-0.783145 -4.874462,1.703311 -8.485826,5.929183 -9.41528,11.017378 -0.161007,0.881412 -0.287997,2.504834 -0.19688,2.516889 0.03023,0.004 1.119301,0.01074 2.420163,0.01499 1.300863,0.0042 2.562772,0.01131 2.804244,0.0157 0.241472,0.0044 0.46956,-0.0053 0.506863,-0.02161 0.0373,-0.01628 0.0757,-0.206713 0.08534,-0.423186 0.05106,-1.147455 0.507463,-2.670451 1.132983,-3.780689 0.362765,-0.643872 1.110658,-1.564869 1.714326,-2.111117 0.908413,-0.822005 2.382816,-1.604191 3.613261,-1.916873 3.175192,-0.80688 6.511097,0.279876 8.650165,2.818013 0.629375,0.746792 0.912094,1.237934 1.370689,2.38117 0.426573,1.063405 0.578912,1.741669 0.603017,2.68483 0.0057,0.221951 0.01971,0.407235 0.0312,0.411742 0.02034,0.008 1.520819,0.01638 4.37317,0.02448 0.772086,0.0022 1.418628,-0.01743 1.436758,-0.04361 0.01813,-0.02618 0.03128,-0.160281 0.02922,-0.298005 z"
       style="fill:#000000;stroke-width:0.0627439" />
  </g>
</svg>
